<?xml version="1.0" encoding="utf-8"?>
<!DOCTYPE svg PUBLIC "-//W3C//DTD SVG 1.0//EN" "http://www.w3.org/TR/2001/REC-SVG-20010904/DTD/svg10.dtd">
<svg version="1.0" xmlns="http://www.w3.org/2000/svg" xmlns:xlink="http://www.w3.org/1999/xlink" x="0px" y="0px"
	 width="100px" height="100px" viewBox="0 0 100 100" enable-background="new 0 0 100 100" xml:space="preserve">
<path d="M75,60c-4.658,0-8.772,2.171-11.526,5.511L39.534,53.542C39.812,52.399,40,51.228,40,50s-0.188-2.399-0.466-3.542
	l23.942-11.969C66.228,37.825,70.342,40,75,40c8.284,0,15-6.719,15-15c0-8.285-6.716-15-15-15c-8.278,0-15,6.715-15,15
	c0,1.224,0.188,2.399,0.466,3.539L36.526,40.508C33.776,37.171,29.661,35,25,35c-8.278,0-15,6.716-15,15s6.722,15,15,15
	c4.661,0,8.776-2.171,11.526-5.508l23.939,11.966C60.188,72.601,60,73.776,60,75c0,8.284,6.722,15,15,15c8.284,0,15-6.716,15-15
	S83.284,60,75,60z"/>
</svg>
